<?xml version="1.0" encoding="UTF-8"?>
<svg width="25px" height="16px" viewBox="0 0 25 16" version="1.1" xmlns="http://www.w3.org/2000/svg" xmlns:xlink="http://www.w3.org/1999/xlink">
    <!-- Generator: sketchtool 52.5 (67469) - http://www.bohemiancoding.com/sketch -->
    <title>AB4E4F7A-3332-4804-B80F-C05C2B76ACCF</title>
    <desc>Created with sketchtool.</desc>
    <g id="Page-1" stroke="none" stroke-width="1" fill="none" fill-rule="evenodd">
        <g id="3.-Search-Country" transform="translate(-54.000000, -576.000000)" fill-rule="nonzero">
            <g id="Group-42" transform="translate(54.000000, 575.000000)">
                <g id="045-andorra" transform="translate(0.000000, 1.000000)">
                    <path d="M1.73161905,15.9857143 L8.12695238,15.9857143 L8.12695238,0.0144285714 L1.82595238,0.0144285714 C0.81747619,0.0144285714 0,0.831904762 0,1.84038095 L0,14.1622381 C0,15.139 0.767047619,15.9366667 1.73161905,15.9857143 Z" id="Shape" fill="#41479B"></path>
                    <polygon id="Rectangle-path" fill="#FFE15A" points="8.12714286 0.0142857143 16.2542857 0.0142857143 16.2542857 15.9852381 8.12714286 15.9852381"></polygon>
                    <path d="M22.6493333,15.9857143 C23.6139048,15.9366667 24.3809524,15.139 24.3809524,14.1621905 L24.3809524,1.84038095 C24.3809524,0.831952381 23.5634762,0.0144285714 22.555,0.0144285714 L16.254,0.0144285714 L16.254,15.9857143 L22.6493333,15.9857143 Z" id="Shape" fill="#FF4B55"></path>
                    <path d="M15.0487143,9.36509524 C15.0487143,9.24309524 14.9498095,9.14414286 14.8277619,9.14414286 C14.8012857,9.14414286 14.7762381,9.14957143 14.7526667,9.15814286 C14.6433333,9.06090476 14.4451905,8.81957143 14.644,8.47890476 C14.6708571,8.49980952 14.7042381,8.5127619 14.7409048,8.5127619 C14.8285714,8.5127619 14.8995714,8.44171429 14.8995714,8.35409524 C14.8995714,8.28485714 14.8549524,8.22657143 14.7930952,8.20490476 C14.9564762,8.12157143 15.1894762,7.94466667 15.1774762,7.61385714 C15.160381,7.14471429 14.7760952,6.8857619 14.5403333,6.98928571 C14.5411905,6.98271429 14.5423333,6.9762381 14.5423333,6.96947619 C14.5423333,6.88304762 14.4722857,6.813 14.3858571,6.813 C14.3327143,6.813 14.2859524,6.83961905 14.2577143,6.88009524 C14.2480952,6.83319048 14.2492381,6.74609524 14.3582857,6.65195238 C14.5608095,6.47704762 14.7909524,6.05819048 14.3720952,5.76361905 C14.1401429,5.60052381 13.6967619,5.52238095 13.5482381,5.7452381 C13.4838095,5.84185714 13.5354762,5.98071429 13.6090476,6.01190476 C13.4905238,6.078 13.2656667,6.17719048 13.088,6.09966667 C12.8348571,5.9892381 12.9810476,5.76985714 13.037381,5.67161905 C13.1363333,5.499 13.0742381,5.21595238 12.7428095,5.21595238 C12.5218571,5.21595238 12.4114286,5.43690476 12.1905238,5.43690476 C11.969619,5.43690476 11.8591429,5.21595238 11.6382381,5.21595238 C11.3068571,5.21595238 11.2447143,5.499 11.3436667,5.67161905 C11.4,5.76980952 11.5461905,5.98919048 11.2930476,6.09966667 C11.115381,6.1772381 10.8905714,6.078 10.772,6.01190476 C10.8455238,5.9807619 10.8972381,5.84190476 10.8328095,5.7452381 C10.6842857,5.52242857 10.2409048,5.60052381 10.0089524,5.76361905 C9.59009524,6.05819048 9.82028571,6.47704762 10.0227619,6.65195238 C10.1318095,6.74609524 10.1329524,6.8332381 10.1233333,6.88009524 C10.0950476,6.83961905 10.0482857,6.813 9.99519048,6.813 C9.9087619,6.813 9.83871429,6.88304762 9.83871429,6.96947619 C9.83871429,6.9762381 9.83985714,6.9827619 9.84071429,6.98928571 C9.60495238,6.88571429 9.22061905,7.14471429 9.20357143,7.61385714 C9.19152381,7.94461905 9.42457143,8.12157143 9.58795238,8.20490476 C9.52609524,8.22661905 9.48147619,8.28485714 9.48147619,8.35409524 C9.48147619,8.4417619 9.55252381,8.5127619 9.64014286,8.5127619 C9.67680952,8.5127619 9.71014286,8.49985714 9.73704762,8.47890476 C9.93585714,8.81961905 9.7377619,9.06090476 9.62838095,9.15814286 C9.60485714,9.14957143 9.5797619,9.14414286 9.55328571,9.14414286 C9.43128571,9.14414286 9.33233333,9.24304762 9.33233333,9.36509524 C9.33233333,9.47966667 9.41980952,9.5727619 9.53147619,9.58385714 C9.37919048,9.74028571 9.24257143,10.0850476 9.53947619,10.4766667 C9.86395238,10.9047143 10.6371905,10.8701905 11.01,10.884 C11.246381,10.8927619 11.4241905,11.0151429 11.5229048,11.1037143 C11.4598095,11.142619 11.4173333,11.2117619 11.4173333,11.2913333 C11.4173333,11.4029048 11.5003333,11.4941905 11.6078095,11.5091905 C11.6468571,11.5716667 11.7156667,11.6135238 11.7947619,11.6135238 C11.8831429,11.6135238 11.9588095,11.5612857 11.9941905,11.4862381 C12.1108571,11.582381 12.190619,11.6227143 12.190619,11.6227143 C12.190619,11.6227143 12.270381,11.5824286 12.3870476,11.4862381 C12.422381,11.5612381 12.4980952,11.6135238 12.5864762,11.6135238 C12.6655714,11.6135238 12.734381,11.5716667 12.7734286,11.5091905 C12.8809048,11.4942381 12.9639048,11.4029048 12.9639048,11.2913333 C12.9639048,11.2117143 12.9214286,11.1425714 12.8583333,11.1037143 C12.957,11.0151905 13.1348095,10.8927619 13.3712381,10.884 C13.7440476,10.8701905 14.5172857,10.9047143 14.8417619,10.4766667 C15.138619,10.0850476 15.0020476,9.7402381 14.8497619,9.58385714 C14.9612381,9.57271429 15.0487143,9.47966667 15.0487143,9.36509524 Z" id="Shape" fill="#DCBE82"></path>
                    <path d="M10.2021905,6.52757143 L10.2021905,9.73104762 C10.2021905,10.0970952 10.4989048,10.3938571 10.865,10.3938571 L11.7487143,10.3938571 C12.0800952,10.3938571 12.1905714,10.6148095 12.1905714,10.6148095 C12.1905714,10.6148095 12.301,10.3938571 12.6324286,10.3938571 L13.5161429,10.3938571 C13.8821905,10.3938571 14.1789524,10.0971429 14.1789524,9.73104762 L14.1789524,6.52757143 C14.1789524,6.46657143 14.1295238,6.41714286 14.0685238,6.41714286 L10.3127619,6.41714286 C10.251619,6.41704762 10.2021905,6.46657143 10.2021905,6.52757143 Z" id="Shape" fill="#D2AA73"></path>
                    <g id="Group" transform="translate(10.380952, 6.619048)" fill="#FF4B55">
                        <polygon id="Rectangle-path" points="0.0419047619 0.019047619 1.69885714 0.019047619 1.69885714 1.676 0.0419047619 1.676"></polygon>
                        <path d="M1.69909524,3.5537619 C0.783952381,3.5537619 0.0421428571,2.81195238 0.0421428571,1.89680952 L1.69909524,1.89680952 L1.69909524,3.5537619 Z" id="Shape"></path>
                    </g>
                    <g id="Group" transform="translate(12.285714, 6.619048)" fill="#FFE15A">
                        <path d="M0.0152857143,3.5537619 L0.0152857143,1.89680952 L1.6722381,1.89680952 C1.67219048,2.81195238 0.930333333,3.5537619 0.0152857143,3.5537619 Z" id="Shape"></path>
                        <polygon id="Rectangle-path" points="0.0152380952 0.019047619 0.515238095 0.019047619 0.515238095 1.676 0.0152380952 1.676"></polygon>
                    </g>
                    <polygon id="Rectangle-path" fill="#FF4B55" points="12.537619 6.63809524 13.037619 6.63809524 13.037619 8.29504762 12.537619 8.29504762"></polygon>
                    <polygon id="Rectangle-path" fill="#FFE15A" points="12.7742857 6.63809524 13.2742857 6.63809524 13.2742857 8.29504762 12.7742857 8.29504762"></polygon>
                    <polygon id="Rectangle-path" fill="#FF4B55" points="13.0114286 6.63809524 13.5114286 6.63809524 13.5114286 8.29504762 13.0114286 8.29504762"></polygon>
                    <g id="Group" transform="translate(13.238095, 6.619048)" fill="#FFE15A">
                        <polygon id="Rectangle-path" points="0.00952380952 0.019047619 0.50952381 0.019047619 0.50952381 1.676 0.00952380952 1.676"></polygon>
                        <polygon id="Rectangle-path" points="0.482857143 0.019047619 0.982857143 0.019047619 0.982857143 1.676 0.482857143 1.676"></polygon>
                    </g>
                    <g id="Group" transform="translate(10.952381, 6.619048)" fill="#FF4B55">
                        <polygon id="Rectangle-path" points="2.53238095 0.019047619 3.03238095 0.019047619 3.03238095 1.676 2.53238095 1.676"></polygon>
                        <polygon id="Rectangle-path" points="0.0228571429 1.89714286 0.522857143 1.89714286 0.522857143 3.55409524 0.0228571429 3.55409524"></polygon>
                    </g>
                    <g id="Group" transform="translate(11.142857, 8.476190)" fill="#FFE15A">
                        <polygon id="Rectangle-path" points="0.0166666667 0.04 0.516666667 0.04 0.516666667 1.69695238 0.0166666667 1.69695238"></polygon>
                        <polygon id="Rectangle-path" points="0.385238095 0.04 0.885238095 0.04 0.885238095 1.69695238 0.385238095 1.69695238"></polygon>
                    </g>
                    <polygon id="Rectangle-path" fill="#FF4B55" points="11.3433333 8.51619048 11.8433333 8.51619048 11.8433333 10.1731429 11.3433333 10.1731429"></polygon>
                    <polygon id="Rectangle-path" fill="#FFE15A" points="11.8957143 8.51619048 12.3957143 8.51619048 12.3957143 10.1731429 11.8957143 10.1731429"></polygon>
                    <polygon id="Rectangle-path" fill="#FF4B55" points="11.7119048 8.51619048 12.2119048 8.51619048 12.2119048 10.1731429 11.7119048 10.1731429"></polygon>
                    <path d="M10.9230952,10.0885238 L10.9230952,8.51585714 L10.4230952,8.51585714 L10.4230953,9.73095238 C10.4229659,9.87852381 10.6212329,10.0082857 10.9230952,10.0885238 Z" id="Shape" fill="#FFE15A"></path>
                    <path d="M11.1071905,10.1654286 L11.1071905,8.51585714 L10.6071905,8.51585714 L10.6071905,10.0885238 C10.7529484,10.1273333 10.9223741,10.1539524 11.1071905,10.1654286 Z" id="Shape" fill="#FF4B55"></path>
                    <path d="M10.7912857,8.51585714 L10.7912857,10.1654286 C10.8565987,10.1694762 10.9226877,10.1728571 10.9913633,10.1728571 L11.2912857,10.1728571 L11.2912857,8.51590476 L10.7912857,8.51585714 Z" id="Shape" fill="#FFE15A"></path>
                    <g id="Group" transform="translate(10.523810, 7.857143)" fill="#F5F5F5">
                        <path d="M0.146238095,0.537 C0.138,0.537 0.129666667,0.533302445 0.122285714,0.525605494 C0.0136666667,0.411735889 0.00733333333,0.293036825 0.0132380952,0.232517658 C0.0211904762,0.150718684 0.0595714286,0.0828798672 0.111,0.0595626321 C0.159952381,0.0377546031 0.208809524,0.0606190764 0.241761905,0.121364624 C0.310333333,0.24768518 0.381142857,0.297413522 0.440761905,0.2624754 C0.487952381,0.234781467 0.516095238,0.161056746 0.516095238,0.105970721 C0.516095238,0.0678632659 0.53552381,0.037 0.559619048,0.037 C0.583714286,0.037 0.603142857,0.0677878056 0.603142857,0.105970721 C0.603142857,0.226556293 0.547619048,0.346764564 0.471047619,0.391738907 C0.415095238,0.424488681 0.302571429,0.444712043 0.175809524,0.211313311 C0.162190476,0.18641141 0.146190476,0.187166013 0.134857143,0.192146393 C0.119428571,0.199164202 0.102333333,0.22089677 0.0991904762,0.253420163 C0.0945714286,0.300960157 0.12047619,0.35815907 0.170238095,0.410453064 C0.190333333,0.431431029 0.195761905,0.474292484 0.18252381,0.506061274 C0.174190476,0.526058255 0.160333333,0.537 0.146238095,0.537 Z" id="Shape"></path>
                        <path d="M1.31447619,0.537125 C1.30038095,0.537125 1.28652381,0.526179952 1.27819048,0.506327899 C1.26495238,0.474474034 1.27042857,0.431675121 1.29047619,0.410690821 C1.3402381,0.358381039 1.36614286,0.301164855 1.36152381,0.253610507 C1.35833333,0.221077295 1.34128571,0.199338164 1.32585714,0.192318237 C1.31452381,0.187336353 1.29847619,0.186506039 1.28490476,0.211490942 C1.15814286,0.445111111 1.04557143,0.424881643 0.989666667,0.391971014 C0.913095238,0.346983092 0.857571429,0.226663043 0.857571429,0.106116546 C0.857571429,0.0679975845 0.877,0.037125 0.901095238,0.037125 C0.925142857,0.037125 0.944619048,0.0679221014 0.944619048,0.106116546 C0.944619048,0.161219203 0.972761905,0.2348907 1.01995238,0.262668478 C1.07957143,0.297768116 1.15042857,0.247873792 1.21895238,0.121515097 C1.25195238,0.0604492754 1.30080952,0.0377288647 1.34971429,0.0596944444 C1.40114286,0.0830187198 1.43957143,0.150878019 1.44747619,0.232701691 C1.45338095,0.293163647 1.44704762,0.411898551 1.33842857,0.525878019 C1.33104762,0.533350845 1.32271429,0.537125 1.31447619,0.537125 Z" id="Shape"></path>
                    </g>
                    <g id="Group" transform="translate(10.571429, 6.666667)" fill="#FFE15A">
                        <path d="M0.0746190476,1.58590476 C0.0654285714,1.58590476 0.0561904762,1.583 0.0482857143,1.57709524 C0.0291428571,1.56247619 0.0254761905,1.5352381 0.04,1.51609524 L0.985904762,0.272333333 C0.994952381,0.256 0.998380952,0.233380952 1.00228571,0.207333333 C1.00957143,0.15847619 1.01871429,0.0976666667 1.09328571,0.0528095238 C1.14190476,0.0236666667 1.19957143,0.0244761905 1.24780952,0.0552857143 C1.30104762,0.0892857143 1.33242857,0.152619048 1.32595238,0.212857143 C1.32204762,0.24947619 1.30066667,0.316285714 1.20157143,0.353 C1.17890476,0.361428571 1.15395238,0.349809524 1.14566667,0.327380952 C1.13733333,0.304857143 1.14880952,0.279761905 1.17128571,0.27147619 C1.20019048,0.260761905 1.23547619,0.240285714 1.23938095,0.203619048 C1.24238095,0.175809524 1.22657143,0.145095238 1.20090476,0.128619048 C1.18657143,0.119428571 1.16404762,0.111571429 1.13809524,0.127428571 C1.09861905,0.151142857 1.09471429,0.177142857 1.0882381,0.220238095 C1.08366667,0.250761905 1.07847619,0.285333333 1.05809524,0.32052381 L0.109190476,1.56880952 C0.100809524,1.57990476 0.0877619048,1.58590476 0.0746190476,1.58590476 Z" id="Shape"></path>
                        <polygon id="Shape" points="0.686095238 0.217857143 0.251 0.74 0.425 1.26219048 0.947190476 1.26219048 1.12128571 0.74"></polygon>
                    </g>
                    <path d="M11.2575238,6.81657143 L10.7734286,7.39747619 L10.9650476,7.97242857 L11.5499048,7.97242857 L11.7415238,7.39747619 L11.2575238,6.81657143 Z M10.8713333,7.416 L11.2140476,7.0047619 L11.2140476,7.88538095 L11.0278095,7.88538095 L10.8713333,7.416 Z M11.4872857,7.88538095 L11.3010476,7.88538095 L11.3010476,7.0047619 L11.6437619,7.416 L11.4872857,7.88538095 Z" id="Shape" fill="#F5F5F5"></path>
                    <path d="M13.5505714,9.039 L13.5571429,8.94247619 C13.5571429,8.94247619 13.6427619,8.88104762 13.601,8.824 C13.5593333,8.76695238 13.5110476,8.75595238 13.4100952,8.76914286 C13.3091429,8.78233333 13.1511429,8.78014286 13.0831429,8.78447619 C13.0150952,8.78890476 12.98,8.82614286 12.8724762,8.79547619 L12.901,8.72961905 C12.901,8.72961905 12.8505714,8.73404762 12.8198095,8.74938095 C12.8030476,8.75780952 12.7627619,8.70328571 12.7232857,8.71209524 C12.6839524,8.72080952 12.6442857,8.80204762 12.5828095,8.8437619 L12.6157143,8.90961905 C12.6157143,8.90961905 12.653,8.89204762 12.6815714,8.91180952 C12.7100952,8.93157143 12.7188571,8.94471429 12.7671905,8.94471429 L12.7979524,8.95790476 C12.7979524,8.95790476 12.7869524,9.02809524 12.8330476,9.06104762 C12.8330476,9.06104762 12.780381,9.12909524 12.7869524,9.14004762 C12.7935238,9.15104762 12.837381,9.23442857 12.855,9.28266667 L12.8945238,9.20804762 C12.8945238,9.20804762 12.8352381,9.15538095 12.8462381,9.1487619 C12.8572381,9.14219048 12.8966667,9.13342857 12.8900952,9.11585714 C12.8835238,9.09828571 12.9208571,9.11804762 12.9625238,9.12461905 C12.9625238,9.12461905 12.9647143,9.19047619 12.9735238,9.1992381 C12.9823333,9.208 12.9954762,9.24309524 12.9932857,9.28042857 C12.9910952,9.31771429 12.9581905,9.32871429 12.9581905,9.32871429 L13.0174762,9.34628571 C13.0174762,9.34628571 13.0328095,9.32433333 13.0438095,9.32652381 C13.0438095,9.32652381 13.039381,9.14438095 13.0635714,9.11585714 C13.0635714,9.11585714 13.2061905,9.14438095 13.272,9.10928571 C13.272,9.10928571 13.2804286,9.11990476 13.2968571,9.13 C13.2902857,9.14528571 13.2847143,9.16052381 13.2871905,9.165 C13.2927143,9.17495238 13.3103333,9.17380952 13.3147143,9.16280952 C13.316381,9.15866667 13.3189524,9.15014286 13.3215238,9.14133333 C13.3294762,9.14395238 13.3381905,9.146 13.3481429,9.147 C13.3471905,9.16085714 13.3470952,9.17361905 13.3502857,9.17657143 C13.3585714,9.1842381 13.375,9.17771429 13.3757619,9.16585714 C13.3760476,9.162 13.3758571,9.15471429 13.3756667,9.14690476 C13.387,9.14595238 13.3990952,9.14395238 13.4124286,9.14 L13.3378095,9.26290476 L13.3005238,9.2782381 L13.3488095,9.30238095 L13.3926667,9.28480952 C13.3926667,9.28480952 13.4343333,9.17947619 13.502381,9.1487619 C13.502381,9.1487619 13.5484762,9.25847619 13.491381,9.3177619 L13.5418095,9.34628571 L13.5659524,9.29585714 C13.5659524,9.29585714 13.5571905,9.19714286 13.5900952,9.13347619 L13.5505714,9.039 Z" id="Shape" fill="#FF4B55"></path>
                    <g id="Group" transform="translate(12.619048, 8.619048)" fill="#4173CD">
                        <path d="M0.541285714,0.402369043 C0.541285714,0.402369043 0.369154567,0.316860667 0.325935491,0.204277886 C0.282716415,0.0916951045 0.230928039,0.0420262304 0.0412857143,0.0106666667 C0.0412857143,0.0106666667 0.161628486,0.0827352292 0.144862465,0.195318011 C0.127723866,0.307900792 0.144862465,0.461192572 0.265205237,0.510666667 L0.541285714,0.402369043 Z" id="Shape"></path>
                        <path d="M0.648095238,0.19998107 C0.648095238,0.19998107 0.547390787,0.5133789 0.251521431,0.676380952 L0.148095238,0.635777024 C0.148095238,0.635777024 0.463977403,0.388635423 0.502241892,0.176380952 L0.648095238,0.19998107 Z" id="Shape"></path>
                        <path d="M0.148020864,0.447045174 C0.125955239,0.435345822 0.418826263,0.391473251 0.348951783,0.272071038 C0.279077304,0.152668825 0.279077304,0.0650957327 0.418826263,0.00952380952 C0.418826263,0.00952380952 0.434205335,0.108968304 0.542527494,0.172626544 C0.650515326,0.236284784 0.712700269,0.395430384 0.534837958,0.486960611 C0.535172286,0.486788562 0.356975647,0.558533119 0.148020864,0.447045174 Z" id="Shape"></path>
                        <path d="M0.504200265,0.76199511 C0.47772218,0.749977001 0.466408816,0.719931729 0.479647858,0.695450396 L0.546805911,0.569037697 C0.586041619,0.494926027 0.560044953,0.402787193 0.482777087,0.361614043 C0.397806505,0.316434856 0.290931325,0.347592916 0.248566389,0.427491083 L0.178760528,0.558800049 C0.165762195,0.583281382 0.133266363,0.593741587 0.106788278,0.581500921 L0.0649047619,0.660286301 C0.0649047619,0.660286301 0.126526487,0.688328554 0.201146545,0.722157305 L0.199461576,0.725050553 C0.182371176,0.756876286 0.196813768,0.795601303 0.231235278,0.811180332 C0.265656789,0.82698192 0.307540305,0.813628466 0.324389996,0.781802733 L0.326074965,0.778909485 C0.400695023,0.812738235 0.462316748,0.840780489 0.462316748,0.840780489 L0.504200265,0.76199511 Z" id="Shape"></path>
                        <polygon id="Shape" points="0.43796839 0.616380952 0.735904762 0.652578869 0.487409491 1.11638095 0.235904762 0.874453869"></polygon>
                        <polygon id="Shape" points="0.445703323 0.709619048 0.318904762 1.08361905 0.818005481 1.08361905 0.818904762 0.894119048"></polygon>
                        <polygon id="Shape" points="1.13966667 0.8955 1.13966667 1.1175 0.639666667 1.1175 0.881593612 0.661"></polygon>
                        <polygon id="Shape" points="1.06204389 0.698666667 0.827857143 1.16516667 1.32082903 1.16516667 1.32785714 0.998166667"></polygon>
                    </g>
                    <path d="M13.5505714,9.72657143 L13.5571429,9.63004762 C13.5571429,9.63004762 13.6427619,9.56861905 13.601,9.51157143 C13.5593333,9.45452381 13.5110476,9.44352381 13.4100952,9.45671429 C13.3091429,9.46990476 13.1511429,9.46771429 13.0831429,9.47204762 C13.0150952,9.47647619 12.98,9.51371429 12.8724762,9.48304762 L12.901,9.41719048 C12.901,9.41719048 12.8505714,9.42161905 12.8198095,9.43695238 C12.8030476,9.44538095 12.7627619,9.39085714 12.7232857,9.39966667 C12.6839524,9.40838095 12.6442857,9.48961905 12.5828095,9.53133333 L12.6157143,9.59719048 C12.6157143,9.59719048 12.653,9.57961905 12.6815714,9.59938095 C12.7100952,9.61914286 12.7188571,9.63228571 12.7671905,9.63228571 L12.7979524,9.64547619 C12.7979524,9.64547619 12.7869524,9.71566667 12.8330476,9.74861905 C12.8330476,9.74861905 12.780381,9.81666667 12.7869524,9.82757143 C12.7935238,9.83857143 12.837381,9.92195238 12.855,9.97019048 L12.8945238,9.89557143 C12.8945238,9.89557143 12.8352381,9.84290476 12.8462381,9.83628571 C12.8572381,9.82966667 12.8966667,9.82095238 12.8900952,9.80338095 C12.8835238,9.78580952 12.9208571,9.80557143 12.9625238,9.81214286 C12.9625238,9.81214286 12.9647143,9.878 12.9735238,9.8867619 C12.9822857,9.89552381 12.9954762,9.93061905 12.9932857,9.96795238 C12.9910952,10.0052381 12.9581905,10.0162381 12.9581905,10.0162381 L13.0174762,10.0338095 C13.0174762,10.0338095 13.0328095,10.0118571 13.0438095,10.0140476 C13.0438095,10.0140476 13.039381,9.83190476 13.0635714,9.80338095 C13.0635714,9.80338095 13.2061905,9.83190476 13.272,9.79680952 C13.272,9.79680952 13.2804286,9.80742857 13.2968571,9.81752381 C13.2902857,9.83280952 13.2847143,9.84804762 13.2871905,9.85252381 C13.2927143,9.86247619 13.3103333,9.86133333 13.3147143,9.85033333 C13.316381,9.84619048 13.3189524,9.83766667 13.3215238,9.82885714 C13.3294762,9.83147619 13.3381905,9.83352381 13.3481429,9.83452381 C13.3471905,9.84838095 13.3470952,9.86114286 13.3502857,9.86409524 C13.3585714,9.8717619 13.375,9.8652381 13.3757619,9.85338095 C13.3760476,9.84952381 13.3758571,9.8422381 13.3756667,9.83442857 C13.387,9.83347619 13.3990952,9.83147619 13.4124286,9.82752381 L13.3378095,9.95042857 L13.3005238,9.9657619 L13.3488095,9.98990476 L13.3926667,9.97233333 C13.3926667,9.97233333 13.4343333,9.867 13.502381,9.83628571 C13.502381,9.83628571 13.5484762,9.946 13.491381,10.0052857 L13.5418095,10.0338095 L13.5659524,9.98338095 C13.5659524,9.98338095 13.5571905,9.88466667 13.5900952,9.821 L13.5505714,9.72657143 Z" id="Shape" fill="#FF4B55"></path>
                    <g id="Group" transform="translate(12.619048, 9.285714)" fill="#4173CD">
                        <path d="M0.541285714,0.423226186 C0.541285714,0.423226186 0.369154567,0.33771781 0.325935491,0.225135029 C0.282716415,0.112552247 0.230928039,0.0628833732 0.0412857143,0.0315238095 C0.0412857143,0.0315238095 0.161628486,0.103592372 0.144862465,0.216175154 C0.127723866,0.328757935 0.144862465,0.482049715 0.265205237,0.53152381 L0.541285714,0.423226186 Z" id="Shape"></path>
                        <path d="M0.648095238,0.220838213 C0.648095238,0.220838213 0.547390787,0.534236043 0.251521431,0.697238095 L0.148095238,0.656634167 C0.148095238,0.656634167 0.463977403,0.409492566 0.502241892,0.197238095 L0.648095238,0.220838213 Z" id="Shape"></path>
                        <path d="M0.148020595,0.4679364 C0.12595995,0.456240735 0.418764881,0.412381994 0.348906171,0.293017418 C0.27904746,0.173652842 0.27904746,0.0861073537 0.418764881,0.0303809524 C0.418764881,0.0303809524 0.434140483,0.1297941 0.542438197,0.193432275 C0.650735912,0.257070449 0.71257257,0.416165885 0.534750397,0.50766726 C0.535084649,0.50766726 0.356928223,0.579389203 0.148020595,0.4679364 Z" id="Shape"></path>
                        <path d="M0.504200265,0.782852253 C0.47772218,0.770834144 0.466408816,0.740788872 0.479647858,0.716307539 L0.546805911,0.58989484 C0.586041619,0.515783169 0.560044953,0.423644336 0.482777087,0.382471186 C0.397806505,0.337291999 0.290931325,0.368450059 0.248566389,0.448348226 L0.178760528,0.579657192 C0.165762195,0.604138524 0.133266363,0.61459873 0.106788278,0.602358064 L0.0649047619,0.681143443 C0.0649047619,0.681143443 0.126526487,0.709185697 0.201146545,0.743014448 L0.199461576,0.745907696 C0.182371176,0.777733428 0.196813768,0.816458445 0.231235278,0.832037475 C0.265656789,0.847839063 0.307540305,0.834485609 0.324389996,0.802659876 L0.326074965,0.799766628 C0.400695023,0.833595378 0.462316748,0.861637632 0.462316748,0.861637632 L0.504200265,0.782852253 Z" id="Shape"></path>
                        <polygon id="Shape" points="0.43796839 0.637238095 0.735904762 0.673436012 0.487409491 1.1372381 0.235904762 0.895311012"></polygon>
                        <polygon id="Shape" points="0.445703323 0.73052381 0.318904762 1.10452381 0.818005481 1.10452381 0.818904762 0.91502381"></polygon>
                        <polygon id="Shape" points="1.13966667 0.916357143 1.13966667 1.13885714 0.639666667 1.13885714 0.881593612 0.681857143"></polygon>
                        <polygon id="Shape" points="1.06204389 0.71952381 0.827857143 1.18652381 1.32082903 1.18652381 1.32785714 1.01952381"></polygon>
                    </g>
                </g>
            </g>
        </g>
    </g>
</svg>