<?xml version="1.0" encoding="UTF-8"?>
<svg width="25px" height="16px" viewBox="0 0 25 16" version="1.1" xmlns="http://www.w3.org/2000/svg" xmlns:xlink="http://www.w3.org/1999/xlink">
    <!-- Generator: sketchtool 52.5 (67469) - http://www.bohemiancoding.com/sketch -->
    <title>FE3730FD-1D29-459B-AD26-D68342593C42</title>
    <desc>Created with sketchtool.</desc>
    <g id="Page-1" stroke="none" stroke-width="1" fill="none" fill-rule="evenodd">
        <g id="3.-Search-Country" transform="translate(-947.000000, -576.000000)" fill-rule="nonzero">
            <g id="Group-20" transform="translate(947.000000, 575.000000)">
                <g id="109-romania" transform="translate(0.000000, 1.000000)">
                    <path d="M1.82595238,0.013 C0.81747619,0.013 0,0.83047619 0,1.83895238 L0,14.1608095 C0,15.1692381 0.81747619,15.9867619 1.82595238,15.9867619 L8.127,15.9867619 L8.127,0.013 L1.82595238,0.013 Z" id="Shape" fill="#41479B"></path>
                    <polygon id="Rectangle-path" fill="#FFE15A" points="8.12714286 0.0131904762 16.2542857 0.0131904762 16.2542857 15.987 8.12714286 15.987"></polygon>
                    <path d="M22.555,0.013 L16.2539524,0.013 L16.2539524,15.9867143 L22.555,15.9867143 C23.5634286,15.9867143 24.3809524,15.1692381 24.3809524,14.1607619 L24.3809524,1.83895238 C24.3809524,0.83047619 23.5634762,0.013 22.555,0.013 Z" id="Shape" fill="#FF4B55"></path>
                </g>
            </g>
        </g>
    </g>
</svg>