<?xml version="1.0" encoding="UTF-8"?>
<svg width="25px" height="16px" viewBox="0 0 25 16" version="1.1" xmlns="http://www.w3.org/2000/svg" xmlns:xlink="http://www.w3.org/1999/xlink">
    <!-- Generator: sketchtool 52.5 (67469) - http://www.bohemiancoding.com/sketch -->
    <title>09D6E0BA-E44D-4959-8B77-8BA5FDE6B0DD</title>
    <desc>Created with sketchtool.</desc>
    <g id="Page-1" stroke="none" stroke-width="1" fill="none" fill-rule="evenodd">
        <g id="3.-Search-Country" transform="translate(-351.000000, -576.000000)" fill-rule="nonzero">
            <g id="Group-31" transform="translate(351.000000, 575.000000)">
                <g id="125-finland" transform="translate(0.000000, 1.000000)">
                    <path d="M22.555,15.9868571 L1.82595238,15.9868571 C0.81747619,15.9868571 0,15.169381 0,14.1609048 L0,1.83909524 C0,0.830666667 0.81747619,0.0131428571 1.82595238,0.0131428571 L22.555,0.0131428571 C23.5634286,0.0131428571 24.3809524,0.830619048 24.3809524,1.83909524 L24.3809524,14.1609524 C24.3809524,15.169381 23.5634762,15.9868571 22.555,15.9868571 Z" id="Shape" fill="#F5F5F5"></path>
                    <polygon id="Shape" fill="#41479B" points="24.3809524 6.73890476 10.0886667 6.73890476 10.0886667 0.0131428571 7.56652381 0.0131428571 7.56652381 6.73890476 0 6.73890476 0 9.26109524 7.56652381 9.26109524 7.56652381 15.9868571 10.0886667 15.9868571 10.0886667 9.26109524 24.3809524 9.26109524"></polygon>
                </g>
            </g>
        </g>
    </g>
</svg>