<?xml version="1.0" encoding="UTF-8"?>
<svg width="10px" height="9px" viewBox="0 0 10 9" version="1.1" xmlns="http://www.w3.org/2000/svg" xmlns:xlink="http://www.w3.org/1999/xlink">
    <!-- Generator: Sketch 52.5 (67469) - http://www.bohemiancoding.com/sketch -->
    <title>Shape Copy 3</title>
    <desc>Created with Sketch.</desc>
    <g id="Page-1" stroke="none" stroke-width="1" fill="none" fill-rule="evenodd">
        <g id="Variable-details" transform="translate(-1214.000000, -719.000000)" fill="#0076C0" fill-rule="nonzero">
            <g id="back-copy-3" transform="translate(1219.000000, 587.500000) scale(-1, 1) translate(-1219.000000, -587.500000) translate(1214.000000, 447.000000)">
                <path d="M9.43788836,275.36878 L9.45349811,275.372195 L2.7619534,275.372195 L4.86553063,273.263984 C4.96853876,273.161057 5.02504283,273.021626 5.02504283,272.875285 C5.02504283,272.728943 4.96853876,272.590488 4.86553063,272.487317 L4.53821356,272.159837 C4.43528673,272.056911 4.29813226,272 4.1518721,272 C4.00553063,272 3.86829486,272.056504 3.76536803,272.159431 L0.159433072,275.765041 C0.0560997391,275.868374 -0.000404325905,276.006016 2.17815981e-06,276.152439 C-0.000404325905,276.299675 0.0560997391,276.437398 0.159433072,276.540569 L3.76536803,280.146504 C3.86829486,280.24935 4.00544933,280.305935 4.1518721,280.305935 C4.29813226,280.305935 4.43528673,280.249268 4.53821356,280.146504 L4.86553063,279.819024 C4.96853876,279.71626 5.02504283,279.579024 5.02504283,279.432683 C5.02504283,279.286423 4.96853876,279.156423 4.86553063,279.053577 L2.73821356,276.933577 L9.44536803,276.933577 C9.74675015,276.933577 10.0000022,276.673821 10.0000022,276.372602 L10.0000022,275.909431 C10.0000022,275.608211 9.73927047,275.36878 9.43788836,275.36878 Z" id="Shape-Copy-3"></path>
            </g>
        </g>
    </g>
</svg>