<?xml version="1.0" encoding="UTF-8"?>
<svg width="16px" height="13px" viewBox="0 0 16 13" version="1.1" xmlns="http://www.w3.org/2000/svg" xmlns:xlink="http://www.w3.org/1999/xlink">
    <!-- Generator: Sketch 52.4 (67378) - http://www.bohemiancoding.com/sketch -->
    <title>twitter-logo-silhouette</title>
    <desc>Created with Sketch.</desc>
    <g id="Symbols" stroke="none" stroke-width="1" fill="none" fill-rule="evenodd">
        <g id="Footer" transform="translate(-1142.000000, -24.000000)" fill="#006288" fill-rule="nonzero">
            <g transform="translate(0.000000, -1.000000)" id="twitter-logo-silhouette">
                <g transform="translate(1142.000000, 25.000000)">
                    <path d="M15.9999739,1.53769935 C15.411085,1.79864052 14.7792157,1.97560784 14.1153203,2.05461438 C14.7932026,1.64867974 15.3121046,1.00481046 15.5580392,0.239947712 C14.9221699,0.615869281 14.2202876,0.888836601 13.4724183,1.03681046 C12.8735425,0.397934641 12.0216993,0 11.0768627,0 C9.26420915,0 7.79448366,1.46972549 7.79448366,3.28138562 C7.79448366,3.5383268 7.82347712,3.78928105 7.87947712,4.0292549 C5.152,3.89226144 2.73346405,2.58551634 1.11477124,0.599869281 C0.831816993,1.08379085 0.670849673,1.64766013 0.670849673,2.24956863 C0.670849673,3.38836601 1.2507451,4.39317647 2.13058824,4.98104575 C1.59267974,4.96305882 1.08677124,4.81508497 0.643869281,4.56912418 L0.643869281,4.61011765 C0.643869281,6.19981699 1.77566013,7.52656209 3.27636601,7.82852288 C3.00141176,7.9025098 2.71147712,7.94350327 2.41152941,7.94350327 C2.1995817,7.94350327 1.99461438,7.9225098 1.79364706,7.8825098 C2.21155556,9.18726797 3.42334641,10.1360784 4.85908497,10.1620915 C3.73628758,11.0419346 2.32054902,11.5648366 0.782849673,11.5648366 C0.517908497,11.5648366 0.256941176,11.5488366 0,11.5198431 C1.45273203,12.4526797 3.17741176,12.9965752 5.03105882,12.9965752 C11.068915,12.9965752 14.3693072,7.99550327 14.3693072,3.6583268 L14.3583007,3.23341176 C15.0031634,2.77346405 15.5610458,2.1955817 15.9999739,1.53769935 Z" id="Shape"></path>
                </g>
            </g>
        </g>
    </g>
</svg>