<?xml version="1.0" encoding="UTF-8"?>
<svg width="20px" height="20px" viewBox="0 0 20 20" version="1.1" xmlns="http://www.w3.org/2000/svg" xmlns:xlink="http://www.w3.org/1999/xlink">
    <!-- Generator: sketchtool 52.5 (67469) - http://www.bohemiancoding.com/sketch -->
    <title>D05CD8F9-28AC-4E52-8CEB-E7F1BF6F4AB2</title>
    <desc>Created with sketchtool.</desc>
    <g id="Page-1" stroke="none" stroke-width="1" fill="none" fill-rule="evenodd">
        <g id="Variable-details" transform="translate(-865.000000, -130.000000)" fill="#0076C0" fill-rule="nonzero">
            <g id="print" transform="translate(865.000000, 130.000000)">
                <path d="M4.99197531,1.24802469 L14.975679,1.24802469 L14.975679,3.74395062 L16.2237037,3.74395062 L16.2237037,1.24802469 C16.2237037,0.559465021 15.6655967,0 14.975679,0 L4.99197531,0 C4.30345679,0 3.74395062,0.559465021 3.74395062,1.24802469 L3.74395062,3.74395062 L4.99197531,3.74395062 L4.99197531,1.24802469 Z" id="Shape"></path>
                <path d="M18.7197531,4.99193416 L1.24806584,4.99193416 C0.559547325,4.99193416 4.11522634e-05,5.55123457 4.11522634e-05,6.23983539 L4.11522634e-05,12.4797119 C4.11522634e-05,13.1695885 0.559506173,13.7277366 1.24806584,13.7277366 L3.74399177,13.7277366 L3.74399177,18.7195885 C3.74399177,19.409465 4.30345679,19.967572 4.99201646,19.967572 L14.9757202,19.967572 C15.6656379,19.967572 16.2237449,19.409465 16.2237449,18.7195885 L16.2237449,13.7277366 L18.7197531,13.7277366 C19.4094239,13.7277366 19.967572,13.1695885 19.967572,12.4797119 L19.967572,6.23983539 C19.967572,5.55123457 19.4093827,4.99193416 18.7197531,4.99193416 Z M14.975679,18.7195885 L4.99197531,18.7195885 L4.99197531,9.98378601 L14.975679,9.98378601 L14.975679,18.7195885 Z M17.4716872,8.73588477 C16.7818107,8.73588477 16.2237037,8.17769547 16.2237037,7.48786008 C16.2237037,6.79934156 16.7818107,6.23983539 17.4716872,6.23983539 C18.1616049,6.23983539 18.7197119,6.79930041 18.7197119,7.48786008 C18.7197531,8.17765432 18.1616049,8.73588477 17.4716872,8.73588477 Z" id="Shape"></path>
                <polygon id="Rectangle-path" points="6.23987654 11.2316872 11.2318107 11.2316872 11.2318107 12.4797119 6.23987654 12.4797119"></polygon>
                <polygon id="Rectangle-path" points="6.23987654 13.7277366 13.7278601 13.7277366 13.7278601 14.9755144 6.23987654 14.9755144"></polygon>
                <polygon id="Rectangle-path" points="6.23987654 16.2237449 13.7278601 16.2237449 13.7278601 17.4715638 6.23987654 17.4715638"></polygon>
            </g>
        </g>
    </g>
</svg>