<?xml version="1.0" encoding="UTF-8"?>
<svg width="7px" height="15px" viewBox="0 0 7 15" version="1.1" xmlns="http://www.w3.org/2000/svg" xmlns:xlink="http://www.w3.org/1999/xlink">
    <!-- Generator: Sketch 52.4 (67378) - http://www.bohemiancoding.com/sketch -->
    <title>facebook-letter-logo</title>
    <desc>Created with Sketch.</desc>
    <g id="Symbols" stroke="none" stroke-width="1" fill="none" fill-rule="evenodd">
        <g id="Footer" transform="translate(-1119.000000, -23.000000)" fill="#006288" fill-rule="nonzero">
            <g transform="translate(0.000000, -1.000000)" id="facebook-letter-logo">
                <g transform="translate(1119.000000, 24.000000)">
                    <path d="M1.50991879,2.89903712 C1.50991879,3.2762645 1.50991879,4.9599884 1.50991879,4.9599884 L0,4.9599884 L0,7.48012761 L1.50991879,7.48012761 L1.50991879,14.9690951 L4.61161253,14.9690951 L4.61161253,7.48033643 L6.69299304,7.48033643 C6.69299304,7.48033643 6.88792343,6.27194896 6.98241299,4.95069606 C6.71150812,4.95069606 4.62334107,4.95069606 4.62334107,4.95069606 C4.62334107,4.95069606 4.62334107,3.48455916 4.62334107,3.22757541 C4.62334107,2.9700348 4.96151972,2.62360789 5.29576566,2.62360789 C5.62938515,2.62360789 6.33351508,2.62360789 6.98568445,2.62360789 C6.98568445,2.28048724 6.98568445,1.09493039 6.98568445,0 C6.115058,0 5.12457077,0 4.68796984,0 C1.43324826,-0.000174013921 1.50991879,2.522471 1.50991879,2.89903712 Z" id="Facebook"></path>
                </g>
            </g>
        </g>
    </g>
</svg>