<?xml version="1.0" encoding="UTF-8"?>
<svg width="20px" height="14px" viewBox="0 0 20 14" version="1.1" xmlns="http://www.w3.org/2000/svg" xmlns:xlink="http://www.w3.org/1999/xlink">
    <!-- Generator: Sketch 52.4 (67378) - http://www.bohemiancoding.com/sketch -->
    <title>youtube-symbol</title>
    <desc>Created with Sketch.</desc>
    <g id="Symbols" stroke="none" stroke-width="1" fill="none" fill-rule="evenodd">
        <g id="Footer" transform="translate(-1174.000000, -25.000000)" fill="#006288" fill-rule="nonzero">
            <g transform="translate(0.000000, -1.000000)" id="youtube-symbol">
                <g transform="translate(1174.000000, 26.000000)">
                    <path d="M19.3161449,2.2038488 C19.0755072,1.15851547 18.2204928,0.387298078 17.1911884,0.272254599 C14.7537681,0.000167642905 12.2867246,-0.00125264695 9.83104348,0.000167642905 C7.37495652,-0.00125264695 4.90750725,0.000167642905 2.47008696,0.272254599 C1.4413913,0.387298078 0.586985507,1.15851547 0.346347826,2.2038488 C0.00385507246,3.69251547 0,5.31752996 0,6.85022561 C0,8.38292127 0,10.0077329 0.342492754,11.4961966 C0.582724638,12.5413271 1.43733333,13.3125445 2.46663768,13.4277908 C4.90385507,13.7000807 7.37110145,13.701501 9.82718841,13.7000807 C12.2836812,13.701501 14.7503188,13.7000807 17.1873333,13.4277908 C18.216029,13.3127474 19.0712464,12.54153 19.3118841,11.4961966 C19.6545797,10.00753 19.6557971,8.38271837 19.6557971,6.85022561 C19.6557971,5.31752996 19.6586377,3.69251547 19.3161449,2.2038488 Z M7.29136232,9.90100822 C7.29136232,7.72674735 7.29136232,5.57521112 7.29136232,3.40074735 C9.37452174,4.48767489 11.4438841,5.56729808 13.5402319,6.66092127 C11.4503768,7.74480532 9.38,8.81793576 7.29136232,9.90100822 Z" id="Shape"></path>
                </g>
            </g>
        </g>
    </g>
</svg>