<?xml version="1.0" encoding="UTF-8"?>
<svg width="10px" height="9px" viewBox="0 0 10 9" version="1.1" xmlns="http://www.w3.org/2000/svg" xmlns:xlink="http://www.w3.org/1999/xlink">
    <!-- Generator: Sketch 52.4 (67378) - http://www.bohemiancoding.com/sketch -->
    <title>back</title>
    <desc>Created with Sketch.</desc>
    <g id="Page-1" stroke="none" stroke-width="1" fill="none" fill-rule="evenodd">
        <g id="1.-Welcome" transform="translate(-265.000000, -389.000000)" fill="#0076C0" fill-rule="nonzero">
            <g id="back" transform="translate(270.000000, 393.500000) scale(-1, 1) translate(-270.000000, -393.500000) translate(265.000000, 389.000000)">
                <path d="M9.43788836,3.36878049 L9.45349811,3.37219512 L2.7619534,3.37219512 L4.86553063,1.26398374 C4.96853876,1.16105691 5.02504283,1.02162602 5.02504283,0.875284553 C5.02504283,0.728943089 4.96853876,0.590487805 4.86553063,0.487317073 L4.53821356,0.159837398 C4.43528673,0.0569105691 4.29813226,0 4.1518721,0 C4.00553063,0 3.86829486,0.056504065 3.76536803,0.159430894 L0.159433072,3.76504065 C0.0560997391,3.86837398 -0.000404325905,4.00601626 2.17815981e-06,4.15243902 C-0.000404325905,4.2996748 0.0560997391,4.43739837 0.159433072,4.54056911 L3.76536803,8.14650407 C3.86829486,8.24934959 4.00544933,8.30593496 4.1518721,8.30593496 C4.29813226,8.30593496 4.43528673,8.24926829 4.53821356,8.14650407 L4.86553063,7.81902439 C4.96853876,7.71626016 5.02504283,7.57902439 5.02504283,7.43268293 C5.02504283,7.28642276 4.96853876,7.15642276 4.86553063,7.05357724 L2.73821356,4.93357724 L9.44536803,4.93357724 C9.74675015,4.93357724 10.0000022,4.67382114 10.0000022,4.37260163 L10.0000022,3.90943089 C10.0000022,3.60821138 9.73927047,3.36878049 9.43788836,3.36878049 Z" id="Shape"></path>
            </g>
        </g>
    </g>
</svg>