<?xml version="1.0" encoding="utf-8"?>
<!-- Generator: Adobe Illustrator 19.0.0, SVG Export Plug-In . SVG Version: 6.00 Build 0)  -->
<svg version="1.1" id="Layer_1" xmlns="http://www.w3.org/2000/svg" xmlns:xlink="http://www.w3.org/1999/xlink" x="0px" y="0px"
	 viewBox="0 0 64 64" style="enable-background:new 0 0 64 64;" xml:space="preserve">
<style type="text/css">
	.st0{fill:#136388;}
</style>
<g id="XMLID_5_">
	<g id="XMLID_8_">
		<g id="XMLID_9_">
			<path id="XMLID_10_" class="st0" d="M32,0C14.3,0,0,14.3,0,32s14.3,32,32,32s32-14.3,32-32S49.7,0,32,0z M32,61.3
				C15.8,61.3,2.7,48.2,2.7,32S15.8,2.7,32,2.7S61.3,15.8,61.3,32S48.2,61.3,32,61.3z"/>
		</g>
	</g>
	<g id="XMLID_6_">
		<polygon id="XMLID_1_" class="st0" points="33.2,12.3 30.7,12.3 30.7,30.8 12.3,30.8 12.3,33.3 30.7,33.3 30.7,51.7 33.2,51.7 
			33.2,33.3 51.7,33.3 51.7,30.8 33.2,30.8 		"/>
	</g>
</g>
</svg>
