<?xml version="1.0" encoding="UTF-8"?>
<svg width="15px" height="22px" viewBox="0 0 15 22" version="1.1" xmlns="http://www.w3.org/2000/svg" xmlns:xlink="http://www.w3.org/1999/xlink">
    <!-- Generator: Sketch 52.5 (67469) - http://www.bohemiancoding.com/sketch -->
    <title>Group 4 Copy 3</title>
    <desc>Created with Sketch.</desc>
    <g id="Page-1" stroke="none" stroke-width="1" fill="none" fill-rule="evenodd">
        <g id="Selected-variables" transform="translate(-1187.000000, -540.000000)" fill="#A8B7C0" fill-rule="nonzero">
            <g id="Group-4-Copy-3" transform="translate(1187.000000, 540.000000)">
                <path d="M12.4939508,2.71996292 L10.3495035,2.71996292 L10.3495035,2.24179109 C10.3495035,1.00565941 9.38638454,0 8.20259143,0 L6.79744833,0 C5.61365522,0 4.65053628,1.00565941 4.65053628,2.24179109 L4.65053628,2.71996292 L2.50608898,2.71996292 C1.12424169,2.71996292 0,3.89391025 0,5.33685259 L0,6 L15,6 L15,5.33681108 C15,3.89391025 13.8757583,2.71996292 12.4939508,2.71996292 Z M9.14030759,2.71996292 L5.85977192,2.71996292 L5.85977192,2.24179109 C5.85977192,1.70193306 6.28040846,1.26265757 6.79748808,1.26265757 L8.20263118,1.26265757 C8.71967105,1.26265757 9.14034734,1.70189154 9.14034734,2.24179109 L9.14034734,2.71996292 L9.14030759,2.71996292 Z" id="Shape"></path>
                <path d="M1,8 L1,20.7151211 C1,21.4235844 1.57976992,22 2.29239768,22 L13.7076023,22 C14.4202301,22 15,21.4235844 15,20.7151211 L15,8 L1,8 Z M5.5572748,20.0959219 L4.28647697,20.0959219 L4.28647697,9.90407809 L5.5572748,9.90407809 L5.5572748,20.0959219 Z M8.63539892,20.0959219 L7.36460108,20.0959219 L7.36460108,9.90407809 L8.63539892,9.90407809 L8.63539892,20.0959219 Z M11.7136066,20.0959219 L10.4428088,20.0959219 L10.4428088,9.90407809 L11.7136066,9.90407809 L11.7136066,20.0959219 Z" id="Shape"></path>
            </g>
        </g>
    </g>
</svg>