<?xml version="1.0" encoding="UTF-8"?>
<svg width="16px" height="16px" viewBox="0 0 16 16" version="1.1" xmlns="http://www.w3.org/2000/svg" xmlns:xlink="http://www.w3.org/1999/xlink">
    <!-- Generator: Sketch 52.4 (67378) - http://www.bohemiancoding.com/sketch -->
    <title>linkedin-logo</title>
    <desc>Created with Sketch.</desc>
    <g id="Symbols" stroke="none" stroke-width="1" fill="none" fill-rule="evenodd">
        <g id="Footer" transform="translate(-1210.000000, -22.000000)" fill="#006288" fill-rule="nonzero">
            <g transform="translate(0.000000, -1.000000)" id="linkedin-logo">
                <g transform="translate(1210.000000, 23.000000)">
                    <path d="M15.9672204,9.35443155 L15.9672204,15.2576148 L12.5449281,15.2576148 L12.5449281,9.74979118 C12.5449281,8.36618097 12.0499304,7.42192111 10.811174,7.42192111 C9.8655406,7.42192111 9.3027935,8.05828306 9.05522042,8.67385615 C8.96493735,8.89392111 8.94169838,9.20022274 8.94169838,9.50826914 L8.94169838,15.2576148 L5.51825522,15.2576148 C5.51825522,15.2576148 5.56436195,5.92916937 5.51825522,4.96267285 L8.94136427,4.96267285 L8.94136427,6.42193968 C8.93442227,6.43285383 8.92540139,6.44462181 8.91886775,6.45520186 L8.94136427,6.45520186 L8.94136427,6.42193968 C9.39615777,5.72146636 10.2083712,4.72081671 12.0263573,4.72081671 C14.2787193,4.72077958 15.9672204,6.19222274 15.9672204,9.35443155 Z M1.93718794,0 C0.766032483,0 0,0.768185615 0,1.77837587 C0,2.7665522 0.74387007,3.55805104 1.89174942,3.55805104 L1.91461717,3.55805104 C3.10845476,3.55805104 3.85091415,2.7667007 3.85091415,1.77837587 C3.82841763,0.768185615 3.10845476,0 1.93718794,0 Z M0.203322506,15.2576148 L3.62546636,15.2576148 L3.62546636,4.96267285 L0.203322506,4.96267285 L0.203322506,15.2576148 Z" id="LinkedIn"></path>
                </g>
            </g>
        </g>
    </g>
</svg>