<?xml version="1.0" encoding="UTF-8"?>
<svg width="11px" height="11px" viewBox="0 0 11 11" version="1.1" xmlns="http://www.w3.org/2000/svg" xmlns:xlink="http://www.w3.org/1999/xlink">
    <!-- Generator: sketchtool 52.5 (67469) - http://www.bohemiancoding.com/sketch -->
    <title>EF09F51D-68E5-40F2-A865-B2F1CBBD812D</title>
    <desc>Created with sketchtool.</desc>
    <g id="Page-1" stroke="none" stroke-width="1" fill="none" fill-rule="evenodd">
        <g id="Search-Results-countries-dropdown" transform="translate(-488.000000, -350.000000)" fill="#A8B7C0" fill-rule="nonzero">
            <g id="Group-2" transform="translate(399.000000, 323.000000)">
                <g id="Group" transform="translate(20.000000, 20.000000)">
                    <path d="M78.8975769,16.7346538 C78.5371154,17.0951154 77.9528077,17.0951154 77.5923462,16.7346538 L74.1654231,13.3077308 L70.5755769,16.8975769 C70.2151154,17.2580385 69.6308077,17.2580385 69.2703462,16.8975769 C68.9098846,16.5371154 68.9098846,15.9528077 69.2703462,15.5923462 L72.8601923,12.0025 L69.4332692,8.57557692 C69.0728077,8.21511538 69.0728077,7.63034615 69.4332692,7.27034615 C69.7937308,6.90988462 70.3780385,6.90988462 70.7385,7.27034615 L74.1654231,10.6972692 L77.4289615,7.43373077 C77.7894231,7.07326923 78.3737308,7.07326923 78.7341923,7.43373077 C79.0946538,7.79419231 79.0946538,8.3785 78.7341923,8.73896154 L75.4706538,12.0025 L78.8975769,15.4294231 C79.2580385,15.7898846 79.2580385,16.3741923 78.8975769,16.7346538 Z" id="Path"></path>
                </g>
            </g>
        </g>
    </g>
</svg>