<?xml version="1.0" encoding="UTF-8"?>
<svg width="28px" height="36px" viewBox="0 0 28 36" version="1.1" xmlns="http://www.w3.org/2000/svg" xmlns:xlink="http://www.w3.org/1999/xlink">
    <!-- Generator: Sketch 52.4 (67378) - http://www.bohemiancoding.com/sketch -->
    <title>Shape</title>
    <desc>Created with Sketch.</desc>
    <g id="Symbols" stroke="none" stroke-width="1" fill="none" fill-rule="evenodd">
        <g id="Footer" transform="translate(-626.000000, -12.000000)" fill="#F15C25" fill-rule="nonzero">
            <g transform="translate(0.000000, -1.000000)" id="Shape">
                <path d="M639.5955,16.4165426 C639.949094,16.5458528 639.982353,16.5500241 640.242005,16.4099878 C640.666201,16.1811623 641.048969,15.886788 641.693723,16.0190777 C642.016975,16.0876061 642.303468,16.3349044 642.533362,16.5798191 C642.645392,16.6984031 642.552617,16.5732642 642.645392,16.6984031 C642.139508,17.0708403 641.818006,17.5594779 641.867602,17.8919898 C641.965628,18.5403285 642.332059,19.2625587 642.63839,18.6398437 C642.772008,18.36573 643.144274,17.4665176 643.151276,17.4027563 C643.909226,18.0367934 644.860312,18.3651341 645.838821,18.3162703 C646.000447,18.3073318 646.586269,18.2399952 646.432811,17.9748199 C646.183079,17.5481558 646.038374,17.2954944 645.694699,17.3044329 C644.900572,17.3288648 644.427947,17.5737795 643.615732,16.8098363 C643.479779,16.681122 643.527042,16.651923 643.591809,16.5315513 C643.720176,16.2890201 644.619331,15.0632548 645.279839,14.3666483 C645.486394,14.149145 645.701701,13.9787177 645.199318,13.8500034 C644.696935,13.7206932 644.22606,13.8106741 643.992082,14.1860908 C643.847377,14.4190875 643.702088,14.6634063 643.584224,14.9005743 C643.516539,15.0072403 643.492616,14.9822125 643.451188,14.9238144 C643.267973,14.6657899 643.112765,14.4488824 642.990233,14.208139 C642.850779,13.929854 642.85428,13.5347726 643.007154,13.247549 C643.056167,13.1551846 643.083591,13.0312375 642.91613,13.0079974 C642.76559,12.9871409 642.568371,13.0079974 642.425417,13.0598407 C642.259706,13.1218142 642.088744,13.3125021 642.047316,13.502594 C642.015808,13.656932 642.002971,13.8100782 642.043232,13.9566694 C642.140675,14.3159969 642.336726,14.6401662 642.517608,14.9601642 C642.631388,15.1621742 642.783095,15.3909996 642.808768,15.6287635 C642.821605,15.7586696 642.78893,15.7020591 642.639557,15.5858587 C642.453424,15.4404592 641.875771,15.1556193 641.308037,15.2259354 C640.361036,15.3415399 638.782702,16.1168052 639.5955,16.4165426 M653.822686,41.1147898 C653.586373,40.7274552 653.353561,40.3258189 653.076988,40.2268996 C652.955623,40.1839948 652.760738,40.2447766 652.547181,40.2745715 C651.52316,40.4247382 650.589579,40.7298388 649.376508,39.9944988 C648.497775,39.4629564 647.638881,38.7073558 646.913022,37.9749953 C646.864592,37.9261315 646.816163,37.8784596 646.76715,37.8313835 C646.95445,36.7385038 647.857105,34.5420182 647.857105,33.0224744 C647.857105,31.6268778 645.915841,32.6559962 645.369113,33.4509262 C644.084273,35.3196671 645.82365,36.672359 645.327685,36.7617439 C645.133384,36.7963061 644.327587,36.1789542 643.175199,35.9882663 C642.401494,35.8601479 641.602699,35.9173543 640.84008,36.0991036 C639.261162,36.4733285 638.225471,37.5632287 637.165273,38.7413221 C636.994895,38.9308181 636.797676,39.0064974 636.530438,38.8539471 C635.736895,38.4004676 635.19075,37.2384635 635.05013,36.6318378 C634.920595,36.0746717 634.863997,34.9502094 634.906592,34.3763581 C634.934599,34.0015373 634.954438,33.7697324 635.233928,33.7917807 C635.969123,33.849583 637.293641,34.3161723 638.171206,33.4944268 C638.934992,32.7787515 638.710349,30.9511277 637.73009,31.4558546 C636.981475,31.8408057 635.873431,32.4414724 635.039043,32.7787515 C633.941503,30.1710953 633.433285,28.8023141 631.396329,28.879781 C630.584697,28.9101719 630.046721,29.5454008 629.931774,29.0680852 C629.274767,27.5485415 631.018228,26.4568536 631.87829,25.8984957 C632.291399,26.2453092 633.009673,26.7994958 633.496885,27.0146155 C634.304432,27.3721552 636.054312,25.9104137 635.248516,25.6958899 C634.242582,25.4289269 632.755272,25.0052424 632.722013,25.0040506 C634.008604,23.8730333 633.960758,22.5537118 633.248903,21.53234 C633.006755,21.1867183 632.717929,21.0270172 632.314739,20.7755476 C632.052169,20.612867 632.093013,20.4317136 632.165949,20.298828 C632.485117,19.7166342 633.586159,19.1392075 634.340025,19.0647201 C634.56,19.0426718 634.638771,19.0480349 634.71229,19.195818 C634.748466,19.2661341 635.172662,19.9734669 635.640619,20.9578929 C635.801662,21.295172 635.757317,21.9572163 635.709471,22.1544591 C635.582854,22.6907686 636.092239,22.8027977 636.406739,22.8558328 C636.928961,22.94343 637.02757,22.7563176 637.015317,22.4166549 C637.001897,22.0376628 636.976223,21.4638115 636.908539,21.336289 C636.71307,20.9739821 636.52402,20.7564788 636.355392,20.4209874 C636.580035,20.4370767 638.269232,20.9811329 638.44953,21.0389352 C638.661336,21.1044841 638.857972,20.9900714 638.954247,20.8714874 C639.080281,20.7189371 639.194644,20.5038174 639.287419,20.3143214 C639.407034,20.0753657 639.264079,19.9734669 639.100703,19.949035 C638.56156,19.8668008 636.212438,19.391273 635.657541,19.1493378 C635.519254,19.0885561 635.610278,19.0736586 635.827919,19.0307538 C636.100408,18.976527 637.043324,18.7292287 637.48094,18.2000699 C637.630897,18.0189164 637.801275,17.6542259 637.895217,17.2370963 C637.920307,17.1286426 637.846787,16.9880103 637.708501,16.9623866 C637.612225,16.9457014 637.426676,16.9278244 637.325149,16.9206736 C637.195031,16.9129269 637.081251,17.0118463 637.06433,17.1459237 C637.009482,17.5982114 636.704901,17.8484892 636.541525,17.950388 C636.208353,18.1631241 635.788825,18.253105 635.393804,18.2680024 C635.20242,18.2751532 635.238596,18.2793245 635.057715,18.2650229 C635.134152,17.5124019 635.110229,16.847378 634.783476,16.6292788 C634.144557,16.2073819 633.041181,16.0393383 633.419865,16.7681234 C633.574489,17.0636895 634.144557,18.1190276 634.193569,18.175638 C631.708495,18.5748907 631.084746,20.4519742 630.981469,20.6813955 C630.856602,20.9608723 630.981469,21.2171091 631.265627,21.2981515 C631.736502,21.4334207 632.34508,21.6902534 632.503789,22.2235834 C632.738351,23.0059995 632.458277,23.7991417 631.715496,24.3503488 C631.515944,24.497536 629.042538,22.5000808 628.041857,21.6247044 C627.802627,21.4143519 627.498629,21.544258 627.415191,21.6360265 C627.048177,22.0358751 626.8848,22.190213 626.720257,22.380305 C626.598891,22.522725 626.594807,22.7414201 626.868463,22.9148269 C627.521386,23.3325524 628.75838,23.9600346 629.224003,24.3527324 C629.374543,24.4784672 629.419472,24.4605902 629.062377,24.4838303 C628.407704,24.5261391 627.119362,24.5100499 626.572051,24.4981319 C626.337489,24.4927688 626.108178,24.5833455 626.070835,24.9402893 C626.050996,25.1309772 626.031741,25.6118681 626.002567,25.8818105 C625.968141,26.1976373 626.289059,26.2816591 626.424428,26.2429256 C627.039425,26.0677312 629.169739,25.5576412 630.562524,25.5361888 C629.96795,25.9449759 629.077548,26.8859012 628.834233,27.3226956 C628.03077,28.7606011 628.750211,29.7909114 629.158653,30.4315033 C629.306275,30.6639042 629.71705,30.8855788 629.990123,30.6877401 C630.63546,30.2211508 631.388743,30.0209286 632.270393,30.6841647 C632.517209,30.8706813 633.268158,31.9879929 633.41403,33.1470174 C632.216129,33.4771458 629.771315,33.7590062 629.044289,33.6040724 C628.40537,33.4676114 627.92866,33.042735 627.460703,32.7239288 C626.9484,32.3747317 626.440766,33.1923058 626.161859,33.5158792 C625.911542,33.8054864 625.956471,34.2118899 626.390002,34.4812364 C626.747097,34.7011234 627.667257,35.2112133 628.03077,35.2654402 C628.635847,35.3560169 629.525666,35.3667431 630.115573,35.5061836 C630.566609,35.6152332 630.557273,35.6491995 630.273114,35.9578754 C629.689626,36.5883371 628.407704,37.8325753 627.711603,38.599498 C627.229642,39.1292527 627.653837,39.6113354 627.859808,39.8556542 C628.281087,40.4306972 629.099137,40.5349796 629.369875,40.0928222 C630.234604,38.6817321 632.114602,35.9459575 633.363266,34.8506941 C633.252404,35.6158291 633.344595,36.7861758 633.641006,37.4994675 C634.653358,39.9319293 635.930029,40.6464128 636.802927,41.0832072 C637.242294,41.3048818 637.798358,41.0528163 637.961734,40.8150524 C638.811876,39.5761773 640.516244,37.9976395 641.375138,37.9338782 C642.465677,37.85224 643.233547,37.8957407 644.430864,38.7484729 C645.059281,39.1959934 642.145342,44.4166691 640.844164,46.0750574 C640.203495,46.8920356 639.732037,47.9670384 641.004624,48.0552315 C642.340811,48.1475959 644.233062,48.3805926 644.46354,47.3860363 C644.668344,46.5052969 645.109461,44.571007 645.524321,43.2987616 C645.844656,44.1097808 646.615443,46.7317387 646.95445,47.654787 C647.138248,48.1541508 647.689644,48.3907229 648.127844,48.1851376 C648.567794,47.9771687 648.947644,47.827002 649.362504,47.6023479 C649.842715,47.3413439 649.771529,46.8294662 649.536383,46.5476057 C649.141946,46.0786328 647.386814,43.36729 646.809745,41.0081238 C647.202432,41.356725 647.578782,41.6439486 647.954548,41.8513216 C649.15945,42.5145578 650.531814,42.9567152 651.908845,42.7082251 C652.977212,42.5187291 654.526955,42.2714308 653.822686,41.1147898"></path>
            </g>
        </g>
    </g>
</svg>