<?xml version="1.0" encoding="UTF-8"?>
<svg width="108px" height="25px" viewBox="0 0 108 25" version="1.1" xmlns="http://www.w3.org/2000/svg" xmlns:xlink="http://www.w3.org/1999/xlink">
    <!-- Generator: Sketch 52.4 (67378) - http://www.bohemiancoding.com/sketch -->
    <title>promundo-logo</title>
    <desc>Created with Sketch.</desc>
    <g id="Symbols" stroke="none" stroke-width="1" fill="none" fill-rule="evenodd">
        <g id="Header" transform="translate(-54.000000, -18.000000)" fill-rule="nonzero">
            <g id="promundo-logo" transform="translate(54.000000, 18.000000)">
                <path d="M9.70833333,2.38875 C9.96083333,2.47916667 9.98458333,2.48208333 10.17,2.38416667 C10.4729167,2.22416667 10.74625,2.01833333 11.2066667,2.11083333 C11.4375,2.15875 11.6420833,2.33166667 11.80625,2.50291667 C11.88625,2.58583333 11.82,2.49833333 11.88625,2.58583333 C11.525,2.84625 11.2954167,3.18791667 11.3308333,3.42041667 C11.4008333,3.87375 11.6625,4.37875 11.88125,3.94333333 C11.9766667,3.75166667 12.2425,3.12291667 12.2475,3.07833333 C12.78875,3.52166667 13.4679167,3.75125 14.1666667,3.71708333 C14.2820833,3.71083333 14.7004167,3.66375 14.5908333,3.47833333 C14.4125,3.18 14.3091667,3.00333333 14.06375,3.00958333 C13.4966667,3.02666667 13.1591667,3.19791667 12.5791667,2.66375 C12.4820833,2.57375 12.5158333,2.55333333 12.5620833,2.46916667 C12.65375,2.29958333 13.2958333,1.4425 13.7675,0.955416667 C13.915,0.803333333 14.06875,0.684166667 13.71,0.594166667 C13.35125,0.50375 13.015,0.566666667 12.8479167,0.829166667 C12.7445833,0.992083333 12.6408333,1.16291667 12.5566667,1.32875 C12.5083333,1.40333333 12.49125,1.38583333 12.4616667,1.345 C12.3308333,1.16458333 12.22,1.01291667 12.1325,0.844583333 C12.0329167,0.65 12.0354167,0.37375 12.1445833,0.172916667 C12.1795833,0.108333333 12.1991667,0.0216666667 12.0795833,0.00541666667 C11.9720833,-0.00916666667 11.83125,0.00541666667 11.7291667,0.0416666667 C11.6108333,0.085 11.48875,0.218333333 11.4591667,0.35125 C11.4366667,0.459166667 11.4275,0.56625 11.45625,0.66875 C11.5258333,0.92 11.6658333,1.14666667 11.795,1.37041667 C11.87625,1.51166667 11.9845833,1.67166667 12.0029167,1.83791667 C12.0120833,1.92875 11.98875,1.88916667 11.8820833,1.80791667 C11.7491667,1.70625 11.3366667,1.50708333 10.93125,1.55625 C10.255,1.63708333 9.12791667,2.17916667 9.70833333,2.38875 M19.8679167,19.6583333 C19.6991667,19.3875 19.5329167,19.1066667 19.3354167,19.0375 C19.24875,19.0075 19.1095833,19.05 18.9570833,19.0708333 C18.2258333,19.1758333 17.5591667,19.3891667 16.6929167,18.875 C16.0654167,18.5033333 15.4520833,17.975 14.93375,17.4629167 C14.8991667,17.42875 14.8645833,17.3954167 14.8295833,17.3625 C14.9633333,16.5983333 15.6079167,15.0625 15.6079167,14 C15.6079167,13.0241667 14.2216667,13.74375 13.83125,14.2995833 C12.91375,15.60625 14.1558333,16.5520833 13.8016667,16.6145833 C13.6629167,16.63875 13.0875,16.2070833 12.2645833,16.07375 C11.7120833,15.9841667 11.1416667,16.0241667 10.5970833,16.15125 C9.46958333,16.4129167 8.73,17.175 7.97291667,17.99875 C7.85125,18.13125 7.71041667,18.1841667 7.51958333,18.0775 C6.95291667,17.7604167 6.56291667,16.9479167 6.4625,16.52375 C6.37,16.1341667 6.32958333,15.3479167 6.36,14.9466667 C6.38,14.6845833 6.39416667,14.5225 6.59375,14.5379167 C7.11875,14.5783333 8.06458333,14.9045833 8.69125,14.33 C9.23666667,13.8295833 9.07625,12.5516667 8.37625,12.9045833 C7.84166667,13.17375 7.05041667,13.59375 6.45458333,13.8295833 C5.67083333,12.00625 5.30791667,11.0491667 3.85333333,11.1033333 C3.27375,11.1245833 2.88958333,11.56875 2.8075,11.235 C2.33833333,10.1725 3.58333333,9.40916667 4.1975,9.01875 C4.4925,9.26125 5.00541667,9.64875 5.35333333,9.79916667 C5.93,10.0491667 7.17958333,9.02708333 6.60416667,8.87708333 C5.88583333,8.69041667 4.82375,8.39416667 4.8,8.39333333 C5.71875,7.6025 5.68458333,6.68 5.17625,5.96583333 C5.00333333,5.72416667 4.79708333,5.6125 4.50916667,5.43666667 C4.32166667,5.32291667 4.35083333,5.19625 4.40291667,5.10333333 C4.63083333,4.69625 5.41708333,4.2925 5.95541667,4.24041667 C6.1125,4.225 6.16875,4.22875 6.22125,4.33208333 C6.24708333,4.38125 6.55,4.87583333 6.88416667,5.56416667 C6.99916667,5.8 6.9675,6.26291667 6.93333333,6.40083333 C6.84291667,6.77583333 7.20666667,6.85416667 7.43125,6.89125 C7.80416667,6.9525 7.87458333,6.82166667 7.86583333,6.58416667 C7.85625,6.31916667 7.83791667,5.91791667 7.78958333,5.82875 C7.65,5.57541667 7.515,5.42333333 7.39458333,5.18875 C7.555,5.2 8.76125,5.58041667 8.89,5.62083333 C9.04125,5.66666667 9.18166667,5.58666667 9.25041667,5.50375 C9.34041667,5.39708333 9.42208333,5.24666667 9.48833333,5.11416667 C9.57375,4.94708333 9.47166667,4.87583333 9.355,4.85875 C8.97,4.80125 7.2925,4.46875 6.89625,4.29958333 C6.7975,4.25708333 6.8625,4.24666667 7.01791667,4.21666667 C7.2125,4.17875 7.88583333,4.00583333 8.19833333,3.63583333 C8.30541667,3.50916667 8.42708333,3.25416667 8.49416667,2.9625 C8.51208333,2.88666667 8.45958333,2.78833333 8.36083333,2.77041667 C8.29208333,2.75875 8.15958333,2.74625 8.08708333,2.74125 C7.99416667,2.73583333 7.91291667,2.805 7.90083333,2.89875 C7.86166667,3.215 7.64416667,3.39 7.5275,3.46125 C7.28958333,3.61 6.99,3.67291667 6.70791667,3.68333333 C6.57125,3.68833333 6.59708333,3.69125 6.46791667,3.68125 C6.5225,3.155 6.50541667,2.69 6.27208333,2.5375 C5.81583333,2.2425 5.02791667,2.125 5.29833333,2.63458333 C5.40875,2.84125 5.81583333,3.57916667 5.85083333,3.61875 C4.07625,3.89791667 3.63083333,5.21041667 3.55708333,5.37083333 C3.46791667,5.56625 3.55708333,5.74541667 3.76,5.80208333 C4.09625,5.89666667 4.53083333,6.07625 4.64416667,6.44916667 C4.81166667,6.99625 4.61166667,7.55083333 4.08125,7.93625 C3.93875,8.03916667 2.1725,6.6425 1.45791667,6.03041667 C1.28708333,5.88333333 1.07,5.97416667 1.01041667,6.03833333 C0.748333333,6.31791667 0.631666667,6.42583333 0.514166667,6.55875 C0.4275,6.65833333 0.424583333,6.81125 0.62,6.9325 C1.08625,7.22458333 1.96958333,7.66333333 2.30208333,7.93791667 C2.40958333,8.02583333 2.44166667,8.01333333 2.18666667,8.02958333 C1.71916667,8.05916667 0.799166667,8.04791667 0.408333333,8.03958333 C0.240833333,8.03583333 0.0770833333,8.09916667 0.0504166667,8.34875 C0.03625,8.48208333 0.0225,8.81833333 0.00166666667,9.00708333 C-0.0229166667,9.22791667 0.20625,9.28666667 0.302916667,9.25958333 C0.742083333,9.13708333 2.26333333,8.78041667 3.25791667,8.76541667 C2.83333333,9.05125 2.1975,9.70916667 2.02375,10.0145833 C1.45,11.02 1.96375,11.7404167 2.25541667,12.1883333 C2.36083333,12.3508333 2.65416667,12.5058333 2.84916667,12.3675 C3.31,12.04125 3.84791667,11.90125 4.4775,12.365 C4.65375,12.4954167 5.19,13.2766667 5.29416667,14.0870833 C4.43875,14.3179167 2.69291667,14.515 2.17375,14.4066667 C1.7175,14.31125 1.37708333,14.0141667 1.04291667,13.79125 C0.677083333,13.5470833 0.314583333,14.11875 0.115416667,14.345 C-0.0633333333,14.5475 -0.03125,14.8316667 0.278333333,15.02 C0.533333333,15.17375 1.19041667,15.5304167 1.45,15.5683333 C1.88208333,15.6316667 2.5175,15.6391667 2.93875,15.7366667 C3.26083333,15.8129167 3.25416667,15.8366667 3.05125,16.0525 C2.63458333,16.4933333 1.71916667,17.3633333 1.22208333,17.8995833 C0.877916667,18.27 1.18083333,18.6070833 1.32791667,18.7779167 C1.62875,19.18 2.21291667,19.2529167 2.40625,18.94375 C3.02375,17.9570833 4.36625,16.0441667 5.25791667,15.2783333 C5.17875,15.8133333 5.24458333,16.6316667 5.45625,17.1304167 C6.17916667,18.83125 7.09083333,19.3308333 7.71416667,19.63625 C8.02791667,19.79125 8.425,19.615 8.54166667,19.44875 C9.14875,18.5825 10.3658333,17.47875 10.9791667,17.4341667 C11.7579167,17.3770833 12.30625,17.4075 13.16125,18.00375 C13.61,18.3166667 11.5291667,21.9670833 10.6,23.1266667 C10.1425,23.6979167 9.80583333,24.4495833 10.7145833,24.51125 C11.66875,24.5758333 13.02,24.73875 13.1845833,24.0433333 C13.3308333,23.4275 13.6458333,22.075 13.9420833,21.1854167 C14.1708333,21.7525 14.72125,23.5858333 14.9633333,24.23125 C15.0945833,24.5804167 15.4883333,24.7458333 15.80125,24.6020833 C16.1154167,24.4566667 16.3866667,24.3516667 16.6829167,24.1945833 C17.0258333,24.0120833 16.975,23.6541667 16.8070833,23.4570833 C16.5254167,23.1291667 15.2720833,21.2333333 14.86,19.58375 C15.1404167,19.8275 15.4091667,20.0283333 15.6775,20.1733333 C16.5379167,20.6370833 17.5179167,20.94625 18.50125,20.7725 C19.2641667,20.64 20.3708333,20.4670833 19.8679167,19.6583333" id="Shape" fill="#F15C25"></path>
                <path d="M38.2341667,18.345 C38.2341667,19.1741667 37.7458333,19.5954167 36.7808333,19.5954167 L35.1591667,19.595 C35.03,19.595 34.9254167,19.49125 34.9254167,19.3620833 L34.9254167,17.33 C34.9254167,17.2016667 35.03,17.0970833 35.1591667,17.0970833 L36.7808333,17.0970833 C37.5045833,17.0975 38.2341667,17.4825 38.2341667,18.345 M40.9483333,23.61125 C40.9241667,23.5375 40.1466667,21.3479167 39.7179167,20.5029167 C40.1366667,20.0866667 40.6125,19.065 40.6125,18.3041667 C40.6125,16.5504167 39.25875,15.1245833 37.5945833,15.1245833 L33.9358333,15.1245833 C33.2204167,15.1245833 32.5433333,15.8004167 32.5433333,16.51625 L32.5433333,23.83375 C32.5433333,24.1533333 32.80375,24.4129167 33.12375,24.4129167 L34.34625,24.4120833 C34.6654167,24.4120833 34.9254167,24.1533333 34.9254167,23.83375 L34.9254167,21.8008333 C34.9254167,21.6716667 35.03,21.5675 35.1591667,21.5675 L36.9954167,21.5675 C37.7475,21.5683333 37.8079167,21.6470833 38.055,22.2633333 C38.0529167,22.2591667 38.6516667,23.8925 38.6516667,23.8925 C38.7133333,24.0616667 38.8433333,24.4125 39.2204167,24.4125 L40.4391667,24.4125 C40.62625,24.4125 40.825,24.2929167 40.9316667,24.1145833 C40.9820833,24.03 41.0079167,23.9379167 41.0079167,23.8458333 C41.0079167,23.7670833 40.9883333,23.6866667 40.9483333,23.61125" id="Shape" fill="#066388"></path>
                <path d="M83.3875,15.1241667 L80.1633333,15.1241667 C78.63375,15.1241667 77.5241667,16.2266667 77.5241667,17.7441667 L77.5241667,23.8320833 C77.5241667,24.1516667 77.7845833,24.4116667 78.10375,24.4116667 L79.3233333,24.4116667 C79.6429167,24.4116667 79.9025,24.1516667 79.9025,23.8320833 L79.9025,18.5475 C79.9025,17.6158333 80.4129167,17.1225 81.3783333,17.1225 L82.5754167,17.1225 C83.485,17.1225 84.0275,17.6670833 84.0275,18.5754167 L84.0275,23.8320833 C84.0275,24.1516667 84.2875,24.4116667 84.6066667,24.4116667 L85.82625,24.4116667 C86.14625,24.4116667 86.4066667,24.1516667 86.4066667,23.8320833 L86.4066667,18.1433333 C86.40625,16.4229167 85.1083333,15.1241667 83.3875,15.1241667" id="Shape" fill="#066388"></path>
                <path d="M75.6125,15.28375 L74.3933333,15.28375 C74.07375,15.28375 73.8133333,15.5433333 73.8133333,15.8629167 L73.8133333,21.14875 C73.8133333,22.0808333 73.3025,22.5741667 72.33625,22.5741667 L71.1404167,22.5741667 C70.2308333,22.5741667 69.6879167,22.03125 69.6879167,21.12125 L69.6879167,15.8629167 C69.6879167,15.5433333 69.4283333,15.28375 69.10875,15.28375 L67.8895833,15.28375 C67.57,15.28375 67.3095833,15.5433333 67.3095833,15.8629167 L67.3095833,21.5529167 C67.3095833,23.2741667 68.60625,24.5729167 70.3270833,24.5729167 L73.55125,24.5729167 C75.0808333,24.5729167 76.19125,23.4704167 76.19125,21.9516667 L76.19125,15.8629167 C76.1920833,15.5433333 75.9320833,15.28375 75.6125,15.28375" id="Shape" fill="#066388"></path>
                <path d="M62.5533333,15.1241667 L61.5408333,15.1241667 C60.44875,15.1241667 59.6929167,15.74875 59.3145833,16.2341667 C58.97,15.7791667 58.1779167,15.13625 57.0695833,15.13625 L56.045,15.13625 C53.9,15.13625 52.6195833,16.4141667 52.6195833,18.5558333 L52.6195833,23.8320833 C52.6195833,24.1516667 52.8795833,24.4116667 53.1991667,24.4116667 L54.4183333,24.4116667 C54.7383333,24.4116667 54.9979167,24.1516667 54.9979167,23.8320833 L54.9979167,18.5566667 C54.9979167,17.6320833 55.5279167,17.1025 56.45125,17.1025 L56.8616667,17.1025 C57.64,17.1025 58.10375,17.6570833 58.10375,18.5845833 L58.10375,23.8329167 C58.10375,23.9883333 58.1645833,24.1333333 58.2745833,24.2425 C58.3845833,24.3516667 58.5295833,24.4120833 58.68375,24.4120833 L59.9116667,24.4120833 C60.2320833,24.4120833 60.4920833,24.1520833 60.4920833,23.8325 L60.4920833,18.5883333 C60.4920833,17.5595833 60.8795833,17.1025 61.7479167,17.1025 L62.14625,17.1025 C63.0695833,17.1025 63.59875,17.6320833 63.59875,18.5566667 L63.59875,23.8325 C63.59875,24.1520833 63.85875,24.4120833 64.1779167,24.4120833 L65.3979167,24.4120833 C65.7179167,24.4120833 65.9770833,24.1520833 65.9770833,23.8325 L65.9770833,18.55625 C65.9775,16.43875 64.6654167,15.1241667 62.5533333,15.1241667" id="Shape" fill="#066388"></path>
                <path d="M102.449167,22.48625 C100.985,22.48625 100.000417,21.4129167 100.000417,19.81375 C100.000417,18.2154167 100.985,17.1420833 102.449167,17.1420833 C103.944167,17.1420833 104.989167,18.2416667 104.989167,19.81375 C104.989167,21.3879167 103.944167,22.48625 102.449167,22.48625 M102.467917,14.9416667 C99.64,14.9416667 97.6654167,16.9458333 97.6654167,19.81375 C97.6654167,22.615 99.6320833,24.5729167 102.449167,24.5729167 C105.3025,24.5729167 107.295417,22.615 107.295417,19.81375 C107.295417,16.9454167 105.310833,14.9416667 102.467917,14.9416667" id="Shape" fill="#066388"></path>
                <path d="M46.5666667,22.48625 C45.1029167,22.48625 44.1183333,21.4129167 44.1183333,19.81375 C44.1183333,18.2154167 45.1029167,17.1420833 46.5666667,17.1420833 C48.0620833,17.1420833 49.1066667,18.2416667 49.1066667,19.81375 C49.10625,21.3879167 48.0620833,22.48625 46.5666667,22.48625 M46.5858333,14.9416667 C43.7579167,14.9416667 41.7825,16.9458333 41.7825,19.81375 C41.7825,22.615 43.7495833,24.5729167 46.5666667,24.5729167 C49.42,24.5729167 51.4129167,22.615 51.4129167,19.81375 C51.4129167,16.9454167 49.4279167,14.9416667 46.5858333,14.9416667" id="Shape" fill="#066388"></path>
                <path d="M28.8329167,18.5483333 C28.8329167,18.98625 28.6908333,20.0016667 27.3766667,20.0016667 L25.3483333,20.0008333 C25.21875,20.0008333 25.11375,19.8970833 25.11375,19.7679167 L25.11375,17.3291667 C25.11375,17.2 25.21875,17.0958333 25.3483333,17.0958333 L27.3766667,17.0958333 C28.6908333,17.0966667 28.8329167,18.1120833 28.8329167,18.5483333 M28.19,15.1241667 L24.12875,15.1241667 C23.4,15.1241667 22.7358333,15.78875 22.7358333,16.51625 L22.7358333,23.8325 C22.7358333,24.1520833 22.99625,24.4120833 23.3158333,24.4120833 L24.5345833,24.4120833 C24.8541667,24.4120833 25.11375,24.1520833 25.11375,23.8325 L25.11375,22.2066667 C25.11375,22.0779167 25.21875,21.9729167 25.3483333,21.9729167 L28.19,21.97375 C29.9708333,21.97375 31.2116667,20.16875 31.2116667,18.5483333 C31.2116667,16.9295833 29.9708333,15.1241667 28.19,15.1241667" id="Shape" fill="#066388"></path>
                <path d="M94.2445833,19.7316667 C94.2445833,21.04125 93.64875,22.44 91.9758333,22.44 L90.3529167,22.4408333 C90.2241667,22.4408333 90.12,22.3358333 90.12,22.2075 L90.12,17.3291667 C90.12,17.1995833 90.2241667,17.0954167 90.35375,17.0954167 L91.9758333,17.0945833 C93.3966667,17.0958333 94.2445833,18.0804167 94.2445833,19.7316667 M92.7854167,15.1241667 L89.13375,15.1241667 C88.41625,15.1241667 87.7379167,15.80375 87.7379167,16.5216667 L87.7379167,23.0195833 C87.7379167,23.7225 88.42625,24.4116667 89.12625,24.4116667 L92.785,24.4116667 C95.1141667,24.4116667 96.6191667,22.58875 96.6191667,19.7679167 C96.6158333,17.2075 94.8958333,15.1241667 92.7854167,15.1241667" id="Shape" fill="#066388"></path>
            </g>
        </g>
    </g>
</svg>